<svg width="28" height="24" viewBox="0 0 28 24" fill="none" xmlns="http://www.w3.org/2000/svg">
<path d="M17.8473 12.7L11.1207 18.7C10.8965 18.9 10.6723 19 10.3359 19C9.99961 19 9.77539 18.9 9.55117 18.7C9.10273 18.3 9.10273 17.7 9.55117 17.3L15.493 12L9.55117 6.7C9.10273 6.3 9.10273 5.7 9.55117 5.3C9.99961 4.9 10.6723 4.9 11.1207 5.3L17.8473 11.3C18.2957 11.7 18.2957 12.3 17.8473 12.7Z" fill="white"/>
<mask id="mask0_5790_128" style="mask-type:alpha" maskUnits="userSpaceOnUse" x="9" y="5" width="10" height="14">
<path d="M17.8473 12.7L11.1207 18.7C10.8965 18.9 10.6723 19 10.3359 19C9.99961 19 9.77539 18.9 9.55117 18.7C9.10273 18.3 9.10273 17.7 9.55117 17.3L15.493 12L9.55117 6.7C9.10273 6.3 9.10273 5.7 9.55117 5.3C9.99961 4.9 10.6723 4.9 11.1207 5.3L17.8473 11.3C18.2957 11.7 18.2957 12.3 17.8473 12.7Z" fill="white"/>
</mask>
<g mask="url(#mask0_5790_128)">
<path fill-rule="evenodd" clip-rule="evenodd" d="M0.246094 0H27.1523V24H0.246094V0Z" fill="white"/>
</g>
</svg>
