<svg width="16" height="16" viewBox="0 0 16 16" fill="none" xmlns="http://www.w3.org/2000/svg">
<path fill-rule="evenodd" clip-rule="evenodd" d="M12.782 1.9173H2.55639C1.46993 1.9173 0.639099 2.74812 0.639099 3.83459V11.5038C0.639099 12.5902 1.46993 13.4211 2.55639 13.4211H12.782C13.8684 13.4211 14.6992 12.5902 14.6992 11.5038V3.83459C14.6992 2.74812 13.8684 1.9173 12.782 1.9173ZM2.55639 3.19549H12.782C13.0376 3.19549 13.2293 3.32331 13.3571 3.57895L7.66917 7.54135L1.9812 3.57895C2.10902 3.32331 2.30075 3.19549 2.55639 3.19549ZM2.55639 12.1429H12.782C13.1654 12.1429 13.4211 11.8872 13.4211 11.5038V5.04887L8.05263 8.81955C7.92481 8.88345 7.79699 8.94736 7.66917 8.94736C7.54135 8.94736 7.41353 8.88345 7.28571 8.81955L1.91729 5.04887V11.5038C1.91729 11.8872 2.17293 12.1429 2.55639 12.1429Z" fill="#1B1B50"/>
<mask id="mask0_5790_154" style="mask-type:alpha" maskUnits="userSpaceOnUse" x="0" y="1" width="15" height="13">
<path fill-rule="evenodd" clip-rule="evenodd" d="M12.782 1.9173H2.55639C1.46993 1.9173 0.639099 2.74812 0.639099 3.83459V11.5038C0.639099 12.5902 1.46993 13.4211 2.55639 13.4211H12.782C13.8684 13.4211 14.6992 12.5902 14.6992 11.5038V3.83459C14.6992 2.74812 13.8684 1.9173 12.782 1.9173ZM2.55639 3.19549H12.782C13.0376 3.19549 13.2293 3.32331 13.3571 3.57895L7.66917 7.54135L1.9812 3.57895C2.10902 3.32331 2.30075 3.19549 2.55639 3.19549ZM2.55639 12.1429H12.782C13.1654 12.1429 13.4211 11.8872 13.4211 11.5038V5.04887L8.05263 8.81955C7.92481 8.88345 7.79699 8.94736 7.66917 8.94736C7.54135 8.94736 7.41353 8.88345 7.28571 8.81955L1.91729 5.04887V11.5038C1.91729 11.8872 2.17293 12.1429 2.55639 12.1429Z" fill="white"/>
</mask>
<g mask="url(#mask0_5790_154)">
</g>
</svg>
