<svg width="70" height="70" viewBox="0 0 70 70" fill="none" xmlns="http://www.w3.org/2000/svg">
<path fill-rule="evenodd" clip-rule="evenodd" d="M67.204 30.4348C69.0368 30.1304 70.2587 28.6087 69.9532 27.087C68.4259 13.087 57.1234 1.82609 42.7662 0C41.2388 0 39.406 1.21739 39.406 2.73913C39.406 4.26087 40.6279 5.78261 42.1552 6.08696C53.7632 7.6087 62.6219 16.4348 63.8438 27.6957C64.1492 29.2174 65.3711 30.4348 66.8985 30.4348H67.204ZM51.0139 40.7826C53.4577 41.6957 56.207 42.3043 58.9562 42.6087C63.5383 43.2174 66.8985 47.1739 66.8985 51.7391V60.8696C66.8985 63.3043 65.6766 65.4348 64.1492 67.2609C62.6219 69.087 60.1781 70 57.7343 70H56.8179C47.0428 69.087 37.2677 65.7391 29.0199 60.2609C21.3831 55.3913 14.6627 48.6957 9.77512 41.087C4.58209 32.8696 0.916418 23.1304 0 13.3913C0 10.9565 0.610945 8.52174 2.13831 6.69565C3.66567 4.86957 5.80398 3.65217 8.24776 3.34783H9.16418H18.3284C22.9104 3.34783 26.8816 6.69565 27.4925 11.2609C27.798 14 28.4089 16.7391 29.3254 19.1739C30.5473 22.5217 29.6308 26.4783 27.1871 28.913L25.0487 31.0435C28.7144 36.8261 33.602 41.3913 39.1005 45.0435L41.2388 42.913C43.988 40.4783 47.6537 39.5652 51.0139 40.7826ZM60.789 60.8696V51.7391C60.789 50.2174 59.5671 49 58.3453 48.6957C55.2905 48.087 52.2358 47.4783 49.1811 46.2609C47.9592 45.6522 46.7373 45.9565 45.8209 46.8696L41.8497 50.8261C40.9333 52.0435 39.406 52.0435 38.1841 51.4348C29.9363 46.8696 23.2159 40.1739 18.6338 31.9565C18.0229 30.7391 18.3284 29.2174 19.2448 28.3043L23.2159 24.6522C23.8269 23.7391 24.1323 22.5217 23.8269 21.3043C22.605 18.5652 21.6886 15.2174 21.3831 12.1739C21.0776 10.6522 19.8557 9.43478 18.3284 9.43478H9.16418C8.24776 9.43478 7.33134 10.0435 6.7204 10.6522C6.41492 11.2609 6.10945 11.8696 6.10945 12.7826C7.02587 21.6087 10.0806 30.1304 14.9682 37.7391C19.5502 44.7391 25.3542 50.8261 32.3801 55.087C40.0169 59.9565 48.5701 63 57.4288 63.913C58.6507 63.913 59.2617 63.6087 59.8726 63C60.4836 62.3913 60.789 61.7826 60.789 60.8696ZM42.1552 18.5652C40.6279 18.2609 39.406 16.7391 39.7114 14.913C40.0169 13.3913 41.5443 12.1739 43.3771 12.4783C50.7084 14 56.5124 19.4783 57.7343 26.7826C58.0398 28.3043 57.1234 30.1304 55.2905 30.4348H54.6796C53.1522 30.4348 51.9303 29.5217 51.6249 28C50.7084 23.1304 47.0428 19.4783 42.1552 18.5652Z" fill="#A5A6F6"/>
<mask id="mask0_5790_143" style="mask-type:alpha" maskUnits="userSpaceOnUse" x="0" y="0" width="70" height="70">
<path fill-rule="evenodd" clip-rule="evenodd" d="M67.204 30.4348C69.0368 30.1304 70.2587 28.6087 69.9532 27.087C68.4259 13.087 57.1234 1.82609 42.7662 0C41.2388 0 39.406 1.21739 39.406 2.73913C39.406 4.26087 40.6279 5.78261 42.1552 6.08696C53.7632 7.6087 62.6219 16.4348 63.8438 27.6957C64.1492 29.2174 65.3711 30.4348 66.8985 30.4348H67.204ZM51.0139 40.7826C53.4577 41.6957 56.207 42.3043 58.9562 42.6087C63.5383 43.2174 66.8985 47.1739 66.8985 51.7391V60.8696C66.8985 63.3043 65.6766 65.4348 64.1492 67.2609C62.6219 69.087 60.1781 70 57.7343 70H56.8179C47.0428 69.087 37.2677 65.7391 29.0199 60.2609C21.3831 55.3913 14.6627 48.6957 9.77512 41.087C4.58209 32.8696 0.916418 23.1304 0 13.3913C0 10.9565 0.610945 8.52174 2.13831 6.69565C3.66567 4.86957 5.80398 3.65217 8.24776 3.34783H9.16418H18.3284C22.9104 3.34783 26.8816 6.69565 27.4925 11.2609C27.798 14 28.4089 16.7391 29.3254 19.1739C30.5473 22.5217 29.6308 26.4783 27.1871 28.913L25.0487 31.0435C28.7144 36.8261 33.602 41.3913 39.1005 45.0435L41.2388 42.913C43.988 40.4783 47.6537 39.5652 51.0139 40.7826ZM60.789 60.8696V51.7391C60.789 50.2174 59.5671 49 58.3453 48.6957C55.2905 48.087 52.2358 47.4783 49.1811 46.2609C47.9592 45.6522 46.7373 45.9565 45.8209 46.8696L41.8497 50.8261C40.9333 52.0435 39.406 52.0435 38.1841 51.4348C29.9363 46.8696 23.2159 40.1739 18.6338 31.9565C18.0229 30.7391 18.3284 29.2174 19.2448 28.3043L23.2159 24.6522C23.8269 23.7391 24.1323 22.5217 23.8269 21.3043C22.605 18.5652 21.6886 15.2174 21.3831 12.1739C21.0776 10.6522 19.8557 9.43478 18.3284 9.43478H9.16418C8.24776 9.43478 7.33134 10.0435 6.7204 10.6522C6.41492 11.2609 6.10945 11.8696 6.10945 12.7826C7.02587 21.6087 10.0806 30.1304 14.9682 37.7391C19.5502 44.7391 25.3542 50.8261 32.3801 55.087C40.0169 59.9565 48.5701 63 57.4288 63.913C58.6507 63.913 59.2617 63.6087 59.8726 63C60.4836 62.3913 60.789 61.7826 60.789 60.8696ZM42.1552 18.5652C40.6279 18.2609 39.406 16.7391 39.7114 14.913C40.0169 13.3913 41.5443 12.1739 43.3771 12.4783C50.7084 14 56.5124 19.4783 57.7343 26.7826C58.0398 28.3043 57.1234 30.1304 55.2905 30.4348H54.6796C53.1522 30.4348 51.9303 29.5217 51.6249 28C50.7084 23.1304 47.0428 19.4783 42.1552 18.5652Z" fill="white"/>
</mask>
<g mask="url(#mask0_5790_143)">
<path fill-rule="evenodd" clip-rule="evenodd" d="M0 0H70V70H0V0Z" fill="#A5A6F6"/>
</g>
</svg>
