<svg width="24" height="24" viewBox="0 0 24 24" fill="none" xmlns="http://www.w3.org/2000/svg">
<path fill-rule="evenodd" clip-rule="evenodd" d="M8.78564 17H19.3683H19.4682C20.8659 17 22.1638 16 22.3634 14.6L23.9608 6.2C24.0607 5.9 23.9608 5.6 23.7612 5.4C23.5615 5.1 23.262 5 22.9625 5H6.48939L6.18988 2.6C5.99021 1.1 4.79217 0 3.19478 0H0.998368C0.399347 0 0 0.4 0 1C0 1.6 0.399347 2 0.998368 2H3.19478C3.69396 2 4.09331 2.4 4.19315 2.9L5.6907 14.4C5.99021 15.9 7.18825 17 8.78564 17ZM4.99184 21C4.99184 19.3 6.28972 18 7.98694 18C9.68417 18 10.982 19.3 10.982 21C10.982 22.7 9.68417 24 7.98694 24C6.28972 24 4.99184 22.7 4.99184 21ZM6.98858 21C6.98858 21.6 7.38792 22 7.98694 22C8.58597 22 8.98531 21.6 8.98531 21C8.98531 20.4 8.58597 20 7.98694 20C7.38792 20 6.98858 20.4 6.98858 21ZM19.9674 18C18.2701 18 16.9723 19.3 16.9723 21C16.9723 22.7 18.2701 24 19.9674 24C21.6646 24 22.9625 22.7 22.9625 21C22.9625 19.3 21.6646 18 19.9674 18ZM18.969 21C18.969 21.6 19.3683 22 19.9674 22C20.5664 22 20.9657 21.6 20.9657 21C20.9657 20.4 20.5664 20 19.9674 20C19.3683 20 18.969 20.4 18.969 21ZM20.3667 14.2L21.7644 7H6.7889L7.68743 14.1C7.78727 14.6 8.18662 15 8.6858 15H19.3683C19.8675 15 20.2669 14.7 20.3667 14.2Z" fill="black"/>
<mask id="mask0_5790_212" style="mask-type:alpha" maskUnits="userSpaceOnUse" x="0" y="0" width="24" height="24">
<path fill-rule="evenodd" clip-rule="evenodd" d="M8.78564 17H19.3683H19.4682C20.8659 17 22.1638 16 22.3634 14.6L23.9608 6.2C24.0607 5.9 23.9608 5.6 23.7612 5.4C23.5615 5.1 23.262 5 22.9625 5H6.48939L6.18988 2.6C5.99021 1.1 4.79217 0 3.19478 0H0.998368C0.399347 0 0 0.4 0 1C0 1.6 0.399347 2 0.998368 2H3.19478C3.69396 2 4.09331 2.4 4.19315 2.9L5.6907 14.4C5.99021 15.9 7.18825 17 8.78564 17ZM4.99184 21C4.99184 19.3 6.28972 18 7.98694 18C9.68417 18 10.982 19.3 10.982 21C10.982 22.7 9.68417 24 7.98694 24C6.28972 24 4.99184 22.7 4.99184 21ZM6.98858 21C6.98858 21.6 7.38792 22 7.98694 22C8.58597 22 8.98531 21.6 8.98531 21C8.98531 20.4 8.58597 20 7.98694 20C7.38792 20 6.98858 20.4 6.98858 21ZM19.9674 18C18.2701 18 16.9723 19.3 16.9723 21C16.9723 22.7 18.2701 24 19.9674 24C21.6646 24 22.9625 22.7 22.9625 21C22.9625 19.3 21.6646 18 19.9674 18ZM18.969 21C18.969 21.6 19.3683 22 19.9674 22C20.5664 22 20.9657 21.6 20.9657 21C20.9657 20.4 20.5664 20 19.9674 20C19.3683 20 18.969 20.4 18.969 21ZM20.3667 14.2L21.7644 7H6.7889L7.68743 14.1C7.78727 14.6 8.18662 15 8.6858 15H19.3683C19.8675 15 20.2669 14.7 20.3667 14.2Z" fill="white"/>
</mask>
<g mask="url(#mask0_5790_212)">
<path fill-rule="evenodd" clip-rule="evenodd" d="M0 0H24V24H0V0Z" fill="black"/>
</g>
</svg>
