<svg width="70" height="70" viewBox="0 0 70 70" fill="none" xmlns="http://www.w3.org/2000/svg">
<path d="M70 51.3333C70 52.0333 69.5333 52.6556 68.9111 52.8111C61.1333 55.1444 55.1444 61.1333 52.8111 68.9111C52.5778 69.5333 52.0333 70 51.3333 70C50.6333 70 50.0111 69.5333 49.8556 68.9111C47.5222 61.1333 41.5333 55.1444 33.7556 52.8111C33.1333 52.5778 32.6667 52.0333 32.6667 51.3333C32.6667 50.6333 33.1333 50.0111 33.7556 49.8556C41.5333 47.5222 47.5222 41.5333 49.8556 33.7556C50.0889 33.1333 50.6333 32.6667 51.3333 32.6667C52.0333 32.6667 52.6556 33.1333 52.8111 33.7556C55.1444 41.5333 61.1333 47.5222 68.9111 49.8556C69.5333 50.0111 70 50.6333 70 51.3333ZM30.0222 41.1444C30.6444 40.9111 31.1111 40.3667 31.1111 39.6667C31.1111 38.9667 30.6444 38.3444 30.0222 38.1889C23.8 36.3222 18.9 31.5 17.0333 25.2C16.8 24.5778 16.2556 24.1111 15.5556 24.1111C14.8556 24.1111 14.2333 24.5778 14.0778 25.2C12.2111 31.4222 7.38889 36.3222 1.08889 38.1889C0.466667 38.3444 0 38.9667 0 39.6667C0 40.3667 0.466667 40.9889 1.08889 41.1444C7.31111 43.0111 12.2111 47.8333 14.0778 54.1333C14.3111 54.7556 14.8556 55.2222 15.5556 55.2222C16.2556 55.2222 16.8778 54.7556 17.0333 54.1333C18.9 47.8333 23.7222 43.0111 30.0222 41.1444ZM24.4222 18.5889C31.4222 20.6889 36.8667 26.0556 38.9667 33.1333C39.2 33.7556 39.7444 34.2222 40.4444 34.2222C41.1444 34.2222 41.7667 33.7556 41.9222 33.1333C44.0222 26.1333 49.3889 20.6889 56.4667 18.5889C57.0889 18.3556 57.5556 17.8111 57.5556 17.1111C57.5556 16.4111 57.0889 15.7889 56.4667 15.6333C49.4667 13.5333 44.0222 8.16667 41.9222 1.08889C41.7667 0.466667 41.1444 0 40.4444 0C39.7444 0 39.1222 0.466667 38.9667 1.08889C36.8667 8.08889 31.5 13.5333 24.4222 15.6333C23.8 15.8667 23.3333 16.4111 23.3333 17.1111C23.3333 17.8111 23.8 18.4333 24.4222 18.5889ZM30.3333 59.8889H28V57.5556C28 56.7 27.3 56 26.4444 56C25.5889 56 24.8889 56.7 24.8889 57.5556V59.8889H22.5556C21.7 59.8889 21 60.5889 21 61.4444C21 62.3 21.7 63 22.5556 63H24.8889V65.3333C24.8889 66.1889 25.5889 66.8889 26.4444 66.8889C27.3 66.8889 28 66.1889 28 65.3333V63H30.3333C31.1889 63 31.8889 62.3 31.8889 61.4444C31.8889 60.5889 31.1889 59.8889 30.3333 59.8889ZM64.5556 31.1111C65.4111 31.1111 66.1111 30.4111 66.1111 29.5556C66.1111 28.7 65.4111 28 64.5556 28C63.7 28 63 28.7 63 29.5556C63 30.4111 63.7 31.1111 64.5556 31.1111ZM2.33333 14.7778H4.66667V17.1111C4.66667 17.9667 5.36667 18.6667 6.22222 18.6667C7.07778 18.6667 7.77778 17.9667 7.77778 17.1111V14.7778H10.1111C10.9667 14.7778 11.6667 14.0778 11.6667 13.2222C11.6667 12.3667 10.9667 11.6667 10.1111 11.6667H7.77778V9.33333C7.77778 8.47778 7.07778 7.77778 6.22222 7.77778C5.36667 7.77778 4.66667 8.47778 4.66667 9.33333V11.6667H2.33333C1.47778 11.6667 0.777778 12.3667 0.777778 13.2222C0.777778 14.0778 1.47778 14.7778 2.33333 14.7778ZM18.6667 7C19.5222 7 20.2222 6.3 20.2222 5.44444C20.2222 4.58889 19.5222 3.88889 18.6667 3.88889C17.8111 3.88889 17.1111 4.58889 17.1111 5.44444C17.1111 6.3 17.8111 7 18.6667 7Z" fill="#A5A6F6"/>
</svg>
