<svg width="70" height="64" viewBox="0 0 70 64" fill="none" xmlns="http://www.w3.org/2000/svg">
<path d="M61.7518 34.4662C61.2363 33.5824 60.2789 33.0669 59.2478 33.0669C58.2168 33.0669 57.2594 33.5824 56.7439 34.4662C54.8291 37.6329 48.4956 48.4588 48.4956 53.2457C48.4956 59.1374 53.2826 63.998 59.2478 63.998C65.1395 63.998 70.0001 59.211 70.0001 53.2457C70.0001 48.4588 63.7402 37.6329 61.7518 34.4662ZM58.585 57.8854C58.3641 58.4009 57.8486 58.6955 57.3331 58.6955C57.1121 58.6955 56.9648 58.6219 56.7439 58.5482C54.4609 57.5172 53.0616 55.3078 53.0616 52.8775C53.0616 51.6255 53.7244 49.7844 55.05 47.2068C55.4183 46.544 56.2284 46.2494 56.8912 46.6177C57.554 46.9859 57.8486 47.796 57.4803 48.4588C56.0074 51.4046 55.7865 52.5829 55.7865 52.8775C55.7865 54.2768 56.5966 55.5288 57.8486 56.1179C58.585 56.3389 58.8796 57.149 58.585 57.8854Z" fill="#A5A6F6"/>
<path d="M9.97903 43.5243C7.32779 46.1756 7.32779 50.447 9.97903 53.0246C12.6303 55.6758 16.9017 55.6758 19.5529 53.0246L47.2436 25.3339L31.5571 21.8726L9.97903 43.5243Z" fill="#A5A6F6"/>
<path d="M59.1741 26.0705C60.0579 26.9542 61.5308 26.9542 62.4145 26.0705C63.2983 25.1867 63.2983 23.7138 62.4145 22.8301L40.0999 0.662809C39.2162 -0.220936 37.7433 -0.220936 36.8595 0.662809C35.9758 1.54655 35.9758 3.01946 36.8595 3.90321L37.596 4.63966L4.30826 37.8538C-1.43609 43.5981 -1.43609 52.9511 4.30826 58.6954C10.0526 64.4398 19.4056 64.4398 25.1499 58.6954L58.4377 25.4077L59.1741 26.0705ZM21.9095 55.455C17.9327 59.4319 11.5255 59.4319 7.54866 55.455C3.5718 51.4782 3.5718 45.071 7.54866 41.0942L40.8364 7.80642L55.1973 22.1673L21.9095 55.455Z" fill="#A5A6F6"/>
</svg>
